<?xml version="1.0" encoding="UTF-8"?>
<svg id="Ebene_2" data-name="Ebene 2" xmlns="http://www.w3.org/2000/svg" viewBox="0 0 83 80">
  <defs>
    <style>
      .cls-1 {
        fill: #8ac441;
      }
    </style>
  </defs>
  <g id="Ebene_1-2" data-name="Ebene 1">
    <path class="cls-1" d="M81.15,44.08c-.68.58-1.91-1.46-.89-1.93.11-.23.22-.45.32-.68,0-.17-.02-.34-.03-.51.02-.76.06-1.53-.26-2.04-.09.02-.18.05-.27.07-.65-.13-1.01.13-1.05-1.28.17-.04.33-.07.5-.11.26.77.83-1.14,1.34-.63.11-.2.21-.39.32-.59.08,0,.15-.03.23-.06-.17-.75-.68-1.59-1.3-1.1-.33-.26-.71.14-1.02-.26-.33,0-.88.66-.59-1.17.51-.25,1.03-.5,1.54-.75,0,.06.02.12.03.18.12.14.23.12.33-.1.63-.26,1.84.29,1.88-1.26.3.05.55-.25.78-.71.17-2.01-1.15-2.76-1.88-1.49-.25-1.05-.89.11-1.11-1.06-.12-1.61.69-.97.83-1.95-.49-.85-1.04-.74-1.6-.59-.07.14-.1.32-.07.54-.16.05-.31.11-.47.16-.37-.2-.82.09-1.1-.58.42-.01.89-.76.86-1.46.09,0,.17-.04.25-.13.47.04.96.25,1.38-.54-.04-.22-.08-.44-.11-.67.1-.44.12-.86.04-1.31.31-.53.64-.8,1.02-.67.03-1.55-.44-.67-.69-.83-.07.08-.15.13-.23.14-.3-.41-.8-.48-.89.15-.16-.03-.33-.06-.49-.09.06-.3.13-.59.19-.89.28.34.66.21.93-.26.08,0,.15-.06.21-.18.47-.18.94-.36,1.42-.54-.28-1.14-.77-.47-1.14-.78-.12-.21-.2-.19-.25.06-.02-.06-.04-.11-.06-.17-.47-.18-1.34-.88-1.57.22-.14-.53-.4-.33-.59-.55-.31.15-.65-.23-.98-.11.32-1.19-.36-3,.49-3.79.18.01.36.03.54.04.35-.44.69-.88,1.04-1.33-.74-.95-1.6.02-2.35-.82-.1.01-.2.05-.3.13-.11-.53-.1-1.76-.58-1.5-.05.08-.1.16-.14.25-.47-.08-.94-.16-1.42-.24-.33.29-.56-.24-.82-.55-.02-.4-.04-.8-.06-1.2,0-.24.02-.48.03-.71.92-.33,1.13-2.66.16-2.59-.03-.22-.08-.41-.16-.58-.98-.03-1.95-.05-2.93-.08-.03-.16-.05-.33-.07-.5-.27-.19-.62.11-.77-.76-.07-.02-.15-.03-.22-.05-.09-.22-.19-.43-.28-.65-.78-1.22-1.62-.43-2.44-.47-1.53-.01-3.07.16-4.57-.23l.02.24c-.18-.12-.36-.24-.53-.36-.1.07-.19.14-.29.14-.04-1.9-.74-.74-1.1-1.13-.26-.02-.52-.05-.78-.07-1.44.55-2.86.22-4.3-.09-.34-1.07-.83-.55-1.24-.55-3.53-.02-7.06.02-10.59.05-.02.16-.04.32-.05.48-2.05.28-4.1.56-6.15.83-1.22-.29-2.49,0-3.73-.04-.04.17-.08.33-.13.49-2.29.07-4.59.14-6.88.21-.02.14-.04.28-.05.43-.08,0-.16.04-.24.13-.71-1.84-6.52.47-8.37-.54-.07-.12-.15-.14-.24-.07-.16,1.41-1.24-.54-2.17.6-.07.17-.14.2-.23.09-.04.17-.06.32-.06.46-.01,0-.02,0-.04-.01-.78-1.4-2.42.6-3.17,1.24-.1-.17-.25-.23-.38-.19-1.43.83-2.97,1.78-4.18,3.48-.02-.06-.04-.12-.07-.18-1.11-.92-2.35.77-2.64,2.86-.37.08-.67.08-.66.74-1.27.79-.32,3.93-.89,5.46-.24.35-.26.77-.16,1.22-.06,1.01-.26,2-.42,3.01-.02.37-.04.74-.06,1.11-.66,1.23-1.22,2.47-1.34,3.97-.57.95-.78,2.31-.76,3.93,0,.43,0,.86,0,1.29-.17,1.08-.08,2.15.01,3.23.02,1.33-.17,2.72.2,3.94.01,1.06.03,2.12.04,3.17-.55,1.53-.12,2.71.24,3.92l.06-.04c0,.24.01.48.02.72-.02.16-.04.33-.05.49h0c-.89.81-.65,2.53-.57,4.13,0,1.06-.09,2.4.26,3.34,1.27,4.26-.97,8.58.03,12.77-.08,1.95.69,1.79,1.09,2.55.18.41.37.82.55,1.23.35.05.7.09,1.05.14.04.27.09.5.2.46.1,1.37,1.07.81,1.5,1.32.23-.08.41.04.47.64.31.34.47-.05.59-.63.19.1.41.02.48.65.24.54.5.61.77.22.28.38.55.75.83,1.13.25.11.49,0,.74-.06.06.52.51.9.79,1.03,1.35.64,2.38,1.88,3.84.87.59.24.85.55,1.49.41.12-.09.25-.15.37-.2.01.16.04.32.07.47.71,0,1.42,0,2.12-.01,1.16.46,2.27.89,3.45.73.02.07.04.14.07.21,1.06.21,2.13.29,3.2.54.14.17.28.26.4.1.36.69,1.08.72,1.61,1.04,1.02-.25,2.01.31,3.03.06,1.04-.27,2.7,1.05,3.31-.59,1.41.74,2.83-.13,4.28-.11.01-.16.02-.32.02-.48.71-.02,1.43-.03,2.14-.05.09-.1.18-.2.28-.3.25.05.5.1.75.15.03-.12.05-.24.06-.37.07.02.13.04.19.07.73-.53,2.68.22,3.09-.61.88-.12,1.75.3,2.62-.25.53-.06,1.07-.12,1.6-.18,0-.05,0-.1,0-.15.82.69,1.68-.65,2.5.2.13,0,.27,0,.4,0,.13-1.14.66-.47.89-1.15l.13.07.12-.11c1.26.17,2.52.16,3.78-.2.52.2,1.02.26,1.55.11,1.37-.03,2.75.71,4.09-.57.18.02.36.05.54.07.11-.06.18-.21.23-.42.03-.01.06-.02.09-.03.58.91,1.7.8,2.05-.19.39.93,1.03,1.08,1.57.51.37-.77.85-.85,1.3-1.08,1.15-.03,2.14-.41,2.58-2.05.38.64.71-.2,1.06-.25.43.16.79.26.9-.49.05.03.11.06.16.09.1-.2.21-.4.31-.6.44-.25.88-.51,1.32-.76-.28-.72-.81-1.85-1.36-.81-.36-.55-.7-.6-1,.18-.37-1.37-1.98-.69-1.67.67-.56-1.55-2.5-.8-3.57-.78-.24.14-.5.48-.52.86-.1.11-.22.26-.27.45-.14-.3-.29-.43-.44-.44.15-.33.34-.61.47-.98.04.04.08.08.12.1,1.08-.1,2.15-.54,3.21-.92.7-.25.8-.14,1.08-1.56.24-.02.47-.04.71-.06.43-.62.95.13,1.37-.54l.13-.02.13.09c.08-.11.16-.17.24-.19.01-.18.02-.35.03-.53.18-.19.36-.39.54-.58.91-.41,1.79-.82,2.47-1.71.25.23.51.29.77.17.35.11.46-.46.54-1.12.46-.2,1,.5,1.38-.66-.32-3.5-.8-1.32-1.66-2.03-.06.13-.08.27-.07.42-.04,0-.08.01-.12.02-.04.05-.07.11-.09.18-.11-.45-.29-.57-.49-.57.08-.42.15-.84.23-1.25.09-.23.19-.46.28-.69-.12-.41-.23-.82-.35-1.23.03-.22.05-.44.08-.66.21-.05.44,0,.53-.63.19,0,.39,0,.58,0,.13-.89.69-.28.79-1.28.17.02.34.04.51.07.16.22.33.21.51.1.11-.24.17-.63.09-.94.55-.56.21-1.17-.04-1.77-.14-.03-.28-.07-.42-.1-.07-.23-.17-.44-.27-.6-.45-.55-.96-1.81-1.49-.82-.15-.36-.3-.72-.45-1.08.28-.18.57-.35.85-.52.9,1.73.47-.59.91-.96,0,.04,0,.08,0,.12.57.93,1.13.04,1.7-.04.13-.04.25-.12.37-.24.47-.67,1.06-.71,1.48-1.63.34-.23.69-.46,1.03-.7-.13-.93-.47-.57-.73-.7h0ZM32.43,78.51s0-.01,0-.02h0v-.02s0,0,0,0c0,.01-.01.03,0,.04ZM72.01,14.62s0,.06,0,.09c-.04,0-.08-.02-.12-.04.04-.03.08-.04.12-.05h0ZM68.97,60.45s0-.1,0-.15c.02,0,.03,0,.05.02-.01.05-.03.09-.04.13h0ZM5.78,25.96s.01,0,.02.01c0,.01-.01.02-.02.04v-.05h0ZM68.54,57.13c-.05-.26,0-.31.04,0-.01,0-.03,0-.04,0ZM54,20.76s-.04.02-.06.04c0-.07.01-.14.02-.21.04.04.07.08.11.11-.03.02-.05.04-.07.06ZM74.4,35.03s.02.03.02.05c-.01,0-.02,0-.04-.01,0-.01,0-.02.01-.04ZM20.58,56.44s.02,0,.02,0c0,.02,0,.03-.01.05,0-.02,0-.04-.01-.05h0ZM51.79,17.58v-.06s.02.05.03.07c-.01,0-.02,0-.03-.01h0s0,0,0,0h0s0,0,0,0ZM46.63,60.19c.1-.14.04.09-.02.14,0-.04,0-.09.01-.13,0,0,0,0,.01-.01ZM44.91,21.12s0,0,0,0c0-.1.02-.21.03-.32,0,.11-.01.22-.02.32ZM60.67,47.37c.03-.07.06-.14.09-.21v.17s-.06.03-.08.04h0ZM30,55.82c0,.09,0,.19,0,.28,0-.1-.02-.2-.03-.29.01,0,.02,0,.04,0v-.02s0,0,0,0c0,0,0,.01,0,.02h0ZM32.33,31.17c-.02-.11-.04-.22-.05-.31.05.09.11.21.15.33h-.01v-.03h-.09ZM45.66,30.25s-.06-.02-.09-.03c.03-.02.06-.03.09-.04v.07h0ZM35.91,35.71h0s0,0,0,0ZM32.41,38.95v.06s-.01-.04-.02-.06h.02ZM34.57,42.79v.05s-.02,0-.03,0c0-.02.02-.04.03-.05ZM34.57,40.25h-.05s.01-.03.02-.05c0,.02.02.03.03.05ZM32.42,40.25h0s-.04.01-.06.02c.02-.06.04-.12.06-.18v.16h0ZM32.42,39.6v.23c0-.08-.02-.16-.04-.23h.04ZM40.22,38.95v-.07s.03.05.03.07h-.03ZM27.04,38.97s-.01.03-.02.05c0-.05-.02-.1-.03-.14.02.03.03.05.05.09h0s0,0,0,0c0,0,0,0,0,0ZM34.18,46.58s-.01.04-.01.06c0-.03-.01-.06-.02-.09.01.01.02.02.03.03ZM21.61,37.06s-.04-.04-.06-.05h.1s-.03.04-.04.05ZM32.47,46.62s.01.06.02.09c-.03,0-.05.01-.08.02.02-.04.04-.07.05-.11h0ZM45.33,37.01v-.08s.01.06.02.08h-.02,0ZM33.42,36.34c-.01-.22-.03-.41-.04-.57.04.15.08.35.11.59-.02,0-.05-.01-.07-.02ZM35.88,53.74s0,.03.01.04c-.02,0-.04.02-.06.03.01-.02.03-.05.04-.07ZM52.06,43.5h0s0,0,0,0h0s0,0,0,0ZM47.48,31.83h-.03c.01-.05.02-.11.03-.17v.17ZM52.06,43.5s0,0,0,0c0,0,0,0,0,0h0ZM52.3,36.27s.02.06.03.08c-.01-.01-.03-.02-.04-.03,0-.02,0-.04.01-.05h0ZM47.48,31.18h-.02s.02-.08.02-.13v.13ZM17.81,31.5c.14-.03.29-.07.43,0-.14,0-.29,0-.43,0ZM45.33,44.13h.02c-.06.12-.08.27-.12.39,0-.12-.02-.24-.02-.37h.13v-.02ZM54.21,43.48v-.08s.04.06.06.08c-.02,0-.04,0-.06,0ZM58.51,42.19h0s0,0,0,0c0,0,0,0,0,0ZM16.25,43.5h.02s0-.01,0-.02c0,0,0,0,0,0h0s0,.05,0,.05c0-.01,0-.02,0-.04ZM31.65,56.6s-.03-.1-.04-.15h.06c0,.05-.02.1-.02.15h0ZM38.06,24.06h.16c0,.11,0,.21-.01.31-.05-.1-.1-.2-.15-.31h0ZM20.31,51.9s0,0,0,0c0,0,0,0,0,0h0ZM47.43,26s.03,0,.05,0c-.02,0-.03.01-.05.02,0,0,0-.02,0-.03h0ZM20.84,49.97s0,.04,0,.06c0-.02-.01-.04-.02-.06h.02ZM28.11,24.07s0,0,0,0h0ZM64.17,46.06s0,0,0,.01c0,0,0,0,0-.01h.01ZM65.27,49.9s0,.04,0,.06h-.04s.02-.04.03-.06ZM39.68,59.02h0s0,0,0,0c0,0,0,0,0,0ZM70.36,36.39s0-.01,0-.02h0v.02h0ZM22.46,57.09v.05s-.02,0-.02,0c0-.01.01-.03.02-.05ZM26.15,63.66s.05-.06.08-.09h0s0,0,0,0h0c-.02.26-.05.48-.08.67,0-.17,0-.36,0-.57h0ZM46.4,57.09v.21s-.03-.04-.04-.05c.01-.05.03-.1.04-.16h0ZM53.99,26.09s-.03-.06-.05-.09h.07s-.01.06-.02.09h0ZM20.85,59.11s0-.05,0-.08h.05s-.03.05-.04.08h0ZM21.11,59.03v.07s-.04-.05-.06-.07h.06ZM34.3,62.91v.07s-.02-.03-.03-.04c0-.01.02-.02.03-.03ZM52.65,54.07c-.02-.06-.04-.12-.06-.19.03,0,.05-.01.08-.02,0,.07-.01.14-.02.21h0ZM25.15,16.94s.01-.05.02-.07c0,.03,0,.05,0,.08,0,0-.01,0-.02,0ZM20.58,56.42v.02s-.01,0-.01-.02h.01ZM73.31,33.77h0s0,0,0,0h0ZM68.47,18.88s-.01.01-.01.02c0-.02,0-.03,0-.05,0,0,0,.02,0,.03ZM17.92,17.58h-.04c.01-.11.02-.21.03-.31,0,.09.01.19,0,.31ZM11.49,53.89c-.1-.45-.18-.84-.25-1.19.09.11.15.3.24.46,0,.23,0,.47.01.72ZM36.72,65.51v.22s-.04-.02-.06-.02c.02-.06.04-.12.07-.19h0ZM73.31,27.32s0,0,0,0c0,.02,0,.04,0,.06v-.06h0ZM36.72,15.64s0,0,0,0c-.01.02-.02.04-.03.06,0-.02,0-.05-.01-.07.01,0,.03,0,.04,0ZM14.66,13.2s-.06.01-.08,0c.03-.04.06-.09.08-.15v.15h0ZM34.57,67.46h0s0,0,0,0c0,0,0,0,0,0ZM69.01,18.88v-.04s0,.03.01.04h-.01ZM69.01,15.01v-.02h0s0,0,0,.02ZM45.84,13.59s.02.07.03.11h-.06s.02-.07.03-.11h0ZM4.7,26s.02.03.03.05c-.01,0-.02,0-.04,0,0-.02,0-.03.01-.05h0ZM19.23,62.26s0,.02,0,.03c0,0-.01,0-.02,0,0,0,0-.02.01-.02ZM70.83,14.42h0s.04-.03.06-.04c-.02.02-.04.03-.06.04ZM70.83,13.42v-.08s.1.02.15.04c-.05.02-.1.03-.14.04h0ZM27.85,14.16c0,.06,0,.12,0,.17h-.04c.01-.06.03-.12.05-.17ZM48.87,67.45h-.04s.02-.05.03-.07c0,.03,0,.05.01.07h0ZM74.65,20.17s0,0,0,0h0ZM47.49,10.47s0,0,0,0h0s0,0,0,0ZM41.83,7.22v-.03s.01.02.01.03h-.02s0,0,0,0h0s0,0,0,0ZM34.3,75.21h0s0,0,0,0h0ZM59.32,69.39s0,.1,0,.15c-.03-.03-.06-.06-.09-.1.03-.01.06-.03.09-.05ZM74.66,20.18s.01.02.02.02c0,.01-.01.02-.02.04v-.06ZM5.51,17.58s-.01,0-.01,0c0,0,0-.02,0-.02,0,0,0,.01.01.02h0ZM49.91,72.63h0s0,0,0,0h0s0,0,0,0ZM3.63,22.75s0,0,0,0h0s0,0,0,0h0ZM18.42,72.5c.13.05.18.14.19.24-.05-.04-.11-.08-.19-.12v-.13ZM9.55,8.53h0s0,0,0,0h0s0,0,0,0h0ZM78.18,31.3s-.01-.07-.02-.11h.05s-.02.07-.03.11h0ZM74.12,61.03v-.05h.01s0,.03-.01.05ZM76,12.44s0,.02,0,.03c0,0,0-.02,0-.02,0,0,0,0,.01,0h0ZM63.36,2.73h-.01s0-.05,0-.08c0,.03,0,.05,0,.08h0ZM17.34,76.4v.11s-.02,0-.03-.01c.04-.14.12-.3.18-.39,0,.1,0,.21,0,.33-.05-.01-.1-.02-.15-.03ZM39.12,77.77s0-.01,0-.02h0s0,.01,0,.02h0ZM66.22,70.71c-.02.13-.04.25-.06.36-.05-.1-.09-.21-.11-.36h.17Z"/>
  </g>
</svg>