<?xml version="1.0" encoding="UTF-8"?>
<svg id="Ebene_2" data-name="Ebene 2" xmlns="http://www.w3.org/2000/svg" viewBox="0 0 82.99 80">
  <defs>
    <style>
      .cls-1 {
        fill: #8ac441;
      }
    </style>
  </defs>
  <g id="Ebene_2-2" data-name="Ebene 2">
    <g id="uuid-81745aee-1d54-4da0-801f-756a55402f90" data-name="Ebene 2-2">
      <g>
        <path class="cls-1" d="M81.11,44.09c-.68.58-1.91-1.46-.89-1.93.11-.23.22-.45.32-.68,0-.17-.02-.34-.03-.51.02-.76.06-1.53-.26-2.04-.09.02-.18.05-.27.07-.65-.13-1.01.13-1.05-1.28.17-.04.33-.07.5-.11.26.77.83-1.14,1.34-.63.11-.2.21-.39.32-.59.08,0,.15-.03.23-.06-.17-.75-.68-1.59-1.3-1.1-.33-.26-.71.14-1.02-.26-.33,0-.88.66-.59-1.17.51-.25,1.03-.5,1.54-.75,0,.06.02.12.03.18.12.14.23.12.33-.1.63-.26,1.84.29,1.88-1.26.3.05.55-.25.78-.71.17-2.01-1.15-2.76-1.88-1.49-.25-1.05-.89.11-1.11-1.06-.12-1.61.69-.97.83-1.95-.49-.85-1.04-.74-1.6-.59-.07.14-.1.32-.07.54-.16.05-.31.11-.47.16-.37-.2-.82.09-1.1-.58.42-.01.89-.76.86-1.46.09,0,.17-.04.25-.13.47.04.96.25,1.38-.54-.04-.22-.08-.44-.11-.67.1-.44.12-.86.04-1.31.31-.53.64-.8,1.02-.67.03-1.55-.44-.67-.69-.83-.07.08-.15.13-.23.14-.3-.41-.8-.48-.89.15-.16-.03-.33-.06-.49-.09.06-.3.13-.59.19-.89.28.34.66.21.93-.26.08,0,.15-.06.21-.18.47-.18.94-.36,1.42-.54-.28-1.14-.77-.47-1.14-.78-.12-.21-.2-.19-.25.06-.02-.06-.04-.11-.06-.17-.47-.18-1.34-.88-1.57.22-.14-.53-.4-.33-.59-.55-.31.15-.65-.23-.98-.11.32-1.19-.36-3,.49-3.79.18.01.36.03.54.04.35-.44.69-.88,1.04-1.33-.74-.95-1.6.02-2.35-.82-.1.01-.2.05-.3.13-.11-.53-.1-1.76-.58-1.5-.05.08-.1.16-.14.25-.47-.08-.94-.16-1.42-.24-.33.29-.56-.24-.82-.55-.02-.4-.04-.8-.06-1.2,0-.24.02-.48.03-.71.92-.33,1.13-2.66.16-2.59-.03-.22-.08-.41-.16-.58-.98-.03-1.95-.05-2.93-.08-.03-.16-.05-.33-.07-.5-.27-.19-.62.11-.77-.76-.07-.02-.15-.03-.22-.05-.09-.22-.19-.43-.28-.65-.78-1.22-1.62-.43-2.44-.47-1.53,0-3.07.16-4.57-.23l.02.24c-.18-.12-.36-.24-.53-.36-.1.07-.19.14-.29.14-.04-1.9-.74-.74-1.1-1.13-.26-.02-.52-.05-.78-.07-1.44.55-2.86.22-4.3-.09-.34-1.07-.83-.55-1.24-.55-3.53-.02-7.06.02-10.59.05-.02.16-.04.32-.05.48-2.05.28-4.1.56-6.15.83-1.22-.29-2.49,0-3.73-.04-.04.17-.08.33-.13.49-2.29.07-4.59.14-6.88.21-.02.14-.04.28-.05.43-.08,0-.16.04-.24.13-.71-1.84-6.52.47-8.37-.54-.07-.12-.15-.14-.24-.07-.16,1.41-1.24-.54-2.17.6-.07.17-.14.2-.23.09-.04.17-.06.32-.06.46h-.04c-.78-1.4-2.42.6-3.17,1.24-.1-.17-.25-.23-.38-.19-1.43.83-2.97,1.78-4.18,3.48-.02-.06-.04-.12-.07-.18-1.11-.92-2.35.77-2.64,2.86-.37.08-.67.08-.66.74-1.27.79-.32,3.93-.89,5.46-.24.35-.26.77-.16,1.22-.06,1.01-.26,2-.42,3.01-.02.37-.04.74-.06,1.11-.66,1.23-1.22,2.47-1.34,3.97-.57.95-.78,2.31-.76,3.93v1.29c-.17,1.08-.08,2.15.01,3.23.02,1.33-.17,2.72.2,3.94,0,1.06.03,2.12.04,3.17-.55,1.53-.12,2.71.24,3.92l.06-.04c0,.24,0,.48.02.72-.02.16-.04.33-.05.49h0c-.89.81-.65,2.53-.57,4.13,0,1.06-.09,2.4.26,3.34,1.27,4.26-.97,8.58.03,12.77-.08,1.95.69,1.79,1.09,2.55.18.41.37.82.55,1.23.35.05.7.09,1.05.14.04.27.09.5.2.46.1,1.37,1.07.81,1.5,1.32.23-.08.41.04.47.64.31.34.47-.05.59-.63.19.1.41.02.48.65.24.54.5.61.77.22.28.38.55.75.83,1.13.25.11.49,0,.74-.06.06.52.51.9.79,1.03,1.35.64,2.38,1.88,3.84.87.59.24.85.55,1.49.41.12-.09.25-.15.37-.2.01.16.04.32.07.47.71,0,1.42,0,2.12-.01,1.16.46,2.27.89,3.45.73.02.07.04.14.07.21,1.06.21,2.13.29,3.2.54.14.17.28.26.4.1.36.69,1.08.72,1.61,1.04,1.02-.25,2.01.31,3.03.06,1.04-.27,2.7,1.05,3.31-.59,1.41.74,2.83-.13,4.28-.11,0-.16.02-.32.02-.48.71-.02,1.43-.03,2.14-.05.09-.1.18-.2.28-.3.25.05.5.1.75.15.03-.12.05-.24.06-.37.07.02.13.04.19.07.73-.53,2.68.22,3.09-.61.88-.12,1.75.3,2.62-.25.53-.06,1.07-.12,1.6-.18v-.15c.82.69,1.68-.65,2.5.2h.4c.13-1.14.66-.47.89-1.15l.13.07.12-.11c1.26.17,2.52.16,3.78-.2.52.2,1.02.26,1.55.11,1.37-.03,2.75.71,4.09-.57.18.02.36.05.54.07.11-.06.18-.21.23-.42.03-.01.06-.02.09-.03.58.91,1.7.8,2.05-.19.39.93,1.03,1.08,1.57.51.37-.77.85-.85,1.3-1.08,1.15-.03,2.14-.41,2.58-2.05.38.64.71-.2,1.06-.25.43.16.79.26.9-.49.05.03.11.06.16.09.1-.2.21-.4.31-.6.44-.25.88-.51,1.32-.76-.28-.72-.81-1.85-1.36-.81-.36-.55-.7-.6-1,.18-.37-1.37-1.98-.69-1.67.67-.56-1.55-2.5-.8-3.57-.78-.24.14-.5.48-.52.86-.1.11-.22.26-.27.45-.14-.3-.29-.43-.44-.44.15-.33.34-.61.47-.98.04.04.08.08.12.1,1.08-.1,2.15-.54,3.21-.92.7-.25.8-.14,1.08-1.56.24-.02.47-.04.71-.06.43-.62.95.13,1.37-.54l.13-.02.13.09c.08-.11.16-.17.24-.19.01-.18.02-.35.03-.53.18-.19.36-.39.54-.58.91-.41,1.79-.82,2.47-1.71.25.23.51.29.77.17.35.11.46-.46.54-1.12.46-.2,1,.5,1.38-.66-.32-3.5-.8-1.32-1.66-2.03-.06.13-.08.27-.07.42-.04,0-.08,0-.12.02-.04.05-.07.11-.09.18-.11-.45-.29-.57-.49-.57.08-.42.15-.84.23-1.25.09-.23.19-.46.28-.69-.12-.41-.23-.82-.35-1.23.03-.22.05-.44.08-.66.21-.05.44,0,.53-.63h.58c.13-.89.69-.28.79-1.28.17.02.34.04.51.07.16.22.33.21.51.1.11-.24.17-.63.09-.94.55-.56.21-1.17-.04-1.77-.14-.03-.28-.07-.42-.1-.07-.23-.17-.44-.27-.6-.45-.55-.96-1.81-1.49-.82-.15-.36-.3-.72-.45-1.08.28-.18.57-.35.85-.52.9,1.73.47-.59.91-.96v.12c.57.93,1.13.04,1.7-.04.13-.04.25-.12.37-.24.47-.67,1.06-.71,1.48-1.63.34-.23.69-.46,1.03-.7-.13-.93-.47-.57-.73-.7h0v-.03h-.01Z"/>
        <path class="cls-1" d="M71.97,14.63v.09s-.08-.02-.12-.04c.04-.03.08-.04.12-.05h0Z"/>
        <path class="cls-1" d="M68.93,60.46v-.15s.03,0,.05.02c-.01.05-.03.09-.04.13h-.01Z"/>
        <path class="cls-1" d="M5.74,25.97s.01,0,.02.01c0,.01-.01.02-.02.04v-.05h0Z"/>
        <path class="cls-1" d="M68.5,57.14c-.05-.26,0-.31.04,0h-.04Z"/>
        <path class="cls-1" d="M53.96,20.77s-.04.02-.06.04c0-.07,0-.14.02-.21.04.04.07.08.11.11-.03.02-.05.04-.07.06Z"/>
        <path class="cls-1" d="M74.36,35.04s.02.03.02.05h-.04s0-.02.01-.04h.01Z"/>
        <path class="cls-1" d="M20.54,56.45h.02s0,.03-.01.05c0-.02,0-.04-.01-.05h0Z"/>
        <path class="cls-1" d="M51.75,17.59v-.06s.02.05.03.07c0,0-.02,0-.03-.01h0Z"/>
        <path class="cls-1" d="M46.59,60.2c.1-.14.04.09-.02.14v-.13h.02Z"/>
        <path class="cls-1" d="M44.87,21.13h0c0-.1.02-.21.03-.32,0,.11,0,.22-.02.32h0Z"/>
        <path class="cls-1" d="M60.63,47.38c.03-.07.06-.14.09-.21v.17s-.06.03-.08.04h0Z"/>
        <path class="cls-1" d="M29.96,55.83v.28c0-.1-.02-.2-.03-.29h.04v-.02h0v.02h-.01Z"/>
        <path class="cls-1" d="M32.29,31.18c-.02-.11-.04-.22-.05-.31.05.09.11.21.15.33h0v-.03h-.1Z"/>
        <path class="cls-1" d="M45.62,30.26s-.06-.02-.09-.03c.03-.02.06-.03.09-.04v.07h0Z"/>
        <path class="cls-1" d="M32.37,38.96v.06s0-.04-.02-.06h.02Z"/>
        <path class="cls-1" d="M34.53,42.8v.05h-.03s.02-.04.03-.05Z"/>
        <path class="cls-1" d="M34.53,40.26h-.05s0-.03.02-.05c0,.02.02.03.03.05Z"/>
        <path class="cls-1" d="M32.38,40.26h0s-.04,0-.06.02c.02-.06.04-.12.06-.18v.16h0Z"/>
        <path class="cls-1" d="M32.38,39.61v.23c0-.08-.02-.16-.04-.23h.04Z"/>
        <path class="cls-1" d="M40.18,38.96v-.07s.03.05.03.07h-.03Z"/>
        <path class="cls-1" d="M27,38.98s-.01.03-.02.05c0-.05-.02-.1-.03-.14.02.03.03.05.05.09h0Z"/>
        <path class="cls-1" d="M34.14,46.59v.06s0-.06-.02-.09l.03.03h0Z"/>
        <path class="cls-1" d="M21.57,37.07s-.04-.04-.06-.05h.1s-.03.04-.04.05Z"/>
        <path class="cls-1" d="M32.43,46.63s0,.06.02.09c-.03,0-.05,0-.08.02.02-.04.04-.07.05-.11h.01Z"/>
        <path class="cls-1" d="M45.29,37.02v-.08s0,.06.02.08h-.02Z"/>
        <path class="cls-1" d="M33.38,36.35c0-.22-.03-.41-.04-.57.04.15.08.35.11.59-.02,0-.05,0-.07-.02Z"/>
        <path class="cls-1" d="M35.84,53.75v.04s-.04.02-.06.03c0-.02.03-.05.04-.07h.02Z"/>
        <path class="cls-1" d="M47.44,31.84h-.03s.02-.11.03-.17v.17Z"/>
        <path class="cls-1" d="M52.26,36.28s.02.06.03.08c0,0-.03-.02-.04-.03v-.05h.01Z"/>
        <path class="cls-1" d="M47.44,31.19h-.02s.02-.08.02-.13v.13Z"/>
        <path class="cls-1" d="M17.77,31.51c.14-.03.29-.07.43,0h-.43Z"/>
        <path class="cls-1" d="M45.29,44.14h.02c-.06.12-.08.27-.12.39,0-.12-.02-.24-.02-.37h.13v-.02h-.01Z"/>
        <path class="cls-1" d="M54.17,43.49v-.08s.04.06.06.08h-.06Z"/>
        <path class="cls-1" d="M16.21,43.51h.02v-.02h0v.05-.04h-.02Z"/>
        <path class="cls-1" d="M31.61,56.61s-.03-.1-.04-.15h.06s-.02.1-.02.15h0Z"/>
        <path class="cls-1" d="M38.02,24.07h.16v.31c-.05-.1-.1-.2-.15-.31h0Z"/>
        <path class="cls-1" d="M47.39,26.01h.05s-.03.01-.05.02v-.03h0Z"/>
        <path class="cls-1" d="M20.8,49.98v.06s-.01-.04-.02-.06h.02Z"/>
        <path class="cls-1" d="M65.23,49.91v.06h-.04s.02-.04.03-.06h.01Z"/>
        <path class="cls-1" d="M22.42,57.1v.05h-.02s.01-.03.02-.05Z"/>
        <path class="cls-1" d="M26.11,63.67s.05-.06.08-.09h0c-.02.26-.05.48-.08.67v-.57h0Z"/>
        <path class="cls-1" d="M46.36,57.1v.21s-.03-.04-.04-.05c0-.05.03-.1.04-.16h0Z"/>
        <path class="cls-1" d="M53.95,26.1s-.03-.06-.05-.09h.07s0,.06-.02.09h0Z"/>
        <path class="cls-1" d="M20.81,59.12v-.08h.05s-.03.05-.04.08h0Z"/>
        <path class="cls-1" d="M21.07,59.04v.07s-.04-.05-.06-.07h.06Z"/>
        <path class="cls-1" d="M34.26,62.92v.07s-.02-.03-.03-.04l.03-.03Z"/>
        <path class="cls-1" d="M52.61,54.08c-.02-.06-.04-.12-.06-.19.03,0,.05,0,.08-.02,0,.07,0,.14-.02.21h0Z"/>
        <path class="cls-1" d="M25.11,16.95s.01-.05.02-.07v.08h-.02Z"/>
        <path class="cls-1" d="M20.54,56.43v.02s-.01,0-.01-.02h.01Z"/>
        <path class="cls-1" d="M68.43,18.89s-.01.01-.01.02v-.05.03s.01,0,.01,0Z"/>
        <path class="cls-1" d="M17.88,17.59h-.04c.01-.11.02-.21.03-.31,0,.09.01.19,0,.31h.01Z"/>
        <path class="cls-1" d="M11.45,53.9c-.1-.45-.18-.84-.25-1.19.09.11.15.3.24.46,0,.23,0,.47.01.72h0Z"/>
        <path class="cls-1" d="M36.68,65.52v.22s-.04-.02-.06-.02c.02-.06.04-.12.07-.19h0Z"/>
        <path class="cls-1" d="M36.68,15.65h0s-.02.04-.03.06v-.07h.04-.01Z"/>
        <path class="cls-1" d="M14.62,13.21s-.06.01-.08,0c.03-.04.06-.09.08-.15v.15h0Z"/>
        <path class="cls-1" d="M68.97,18.89v-.04s0,.03.01.04h-.01Z"/>
        <path class="cls-1" d="M45.8,13.6s.02.07.03.11h-.06s.02-.07.03-.11h0Z"/>
        <path class="cls-1" d="M4.66,26.01s.02.03.03.05h-.04s0-.03.01-.05h0Z"/>
        <path class="cls-1" d="M19.19,62.27v.03h-.02s0-.02.01-.02h.01Z"/>
        <path class="cls-1" d="M70.79,14.43h0s.04-.03.06-.04c-.02.02-.04.03-.06.04Z"/>
        <path class="cls-1" d="M70.79,13.43v-.08s.1.02.15.04c-.05.02-.1.03-.14.04h-.01Z"/>
        <path class="cls-1" d="M27.81,14.17v.17h-.04c.01-.06.03-.12.05-.17h0Z"/>
        <path class="cls-1" d="M48.83,67.46h-.04s.02-.05.03-.07v.07h.01Z"/>
        <path class="cls-1" d="M41.79,7.23v-.03.03h-.02.02Z"/>
        <path class="cls-1" d="M59.28,69.4v.15s-.06-.06-.09-.1c.03-.01.06-.03.09-.05Z"/>
        <path class="cls-1" d="M74.62,20.19s.01.02.02.02c0,.01-.01.02-.02.04v-.06Z"/>
        <path class="cls-1" d="M5.47,17.59h-.01v-.02s0,.01.01.02h0Z"/>
        <path class="cls-1" d="M18.38,72.51c.13.05.18.14.19.24-.05-.04-.11-.08-.19-.12v-.13h0Z"/>
        <path class="cls-1" d="M78.14,31.31s-.01-.07-.02-.11h.05s-.02.07-.03.11h0Z"/>
        <path class="cls-1" d="M74.08,61.04v-.05h.01s0,.03-.01.05Z"/>
        <path class="cls-1" d="M75.96,12.45v.03-.02h.01-.01Z"/>
        <path class="cls-1" d="M17.3,76.41v.11s-.02,0-.03-.01c.04-.14.12-.3.18-.39v.33s-.1-.02-.15-.03h0Z"/>
        <path class="cls-1" d="M66.18,70.72c-.02.13-.04.25-.06.36-.05-.1-.09-.21-.11-.36h.17Z"/>
      </g>
    </g>
  </g>
</svg>