<?xml version="1.0" encoding="UTF-8"?>
<svg id="Ebene_2" data-name="Ebene 2" xmlns="http://www.w3.org/2000/svg" xmlns:xlink="http://www.w3.org/1999/xlink" viewBox="0 0 328.89 8.57">
  <defs>
    <style>
      .cls-1 {
        fill: none;
      }

      .cls-2 {
        fill: #8ac441;
      }

      .cls-3 {
        clip-path: url(#clippath);
      }
    </style>
    <clipPath id="clippath">
      <rect class="cls-1" x="0" width="328.89" height="8.57"/>
    </clipPath>
  </defs>
  <g id="Ebene_1-2" data-name="Ebene 1">
    <g class="cls-3">
      <g>
        <path class="cls-2" d="M24.57,4.48c.41-.55,2.04-.74,1.5-1.61-.18-.28.52-.63,1.34-.65.11-.03.23-.04.36-.07-.05.06-.08.12-.13.19.08.38-.16.79.33,1.14.15-.19.11-.54.72-.45.44.06.15.32.08.49,1.16.26,1.87.05,2.13-.58.16-.38-.1-.86,1.04-1.05.6.46.88.98,1.03,1.54.08.31.29.61.75.81.49.22,1.09.27,1.6.04.47-.21.26-.46-.11-.66-.36-.19-.6-.4-.55-.68l.1-.1-.15.07c-.94-.37-1.35-.83-.29-1.26.94-.38,1.61,0,2.1.43.2.18.36.36.54.55l.18.06-.13-.09c1.08-1.38,3.57-1.87,6.44-1.26-.44.04-.85.12-1.14.32-.28-.04-.54-.1-.81-.1-.15,0-.42.08-.44.13-.05.22.29.22.55.19.26-.04.51-.12.75-.19.37-.11.75-.22,1.12-.33.83-.27,1.65-.5,2.69-.54.93-.04,1.17-.11.94.51-.13.35,2.12.57,2.82.27,1.3-.58,2.19-.4,2.66.54.93-.37-.15-1.34,1.63-1.41,1.48-.05,2.12.37,2.49,1.03,1.08,0,1.48-.51,2.26-.68,1.24-.27.96.25,1.08.57.2.1.39.19.6.29.59-.27-.05-.9,1.25-1.02,1.56-.14,3.1-.54,4.55.13-.2.11-.39.2-.59.3-.16.03-.33.04-.47.08-.03,0-.05.05-.08.08.29.07.42-.07.59-.14.18-.11.37-.21.55-.32,1.12.04,1.06.72,1.79.95-1.19,1.03-3.16,1.41-5.25,1.71.51.07.98.1,1.43.07,2.3-.15,2.33-.14,2.8,1.13.15.4.6.5,1.27.33.57-.15.77-.45.93-.75l.13-.08-.18.06c-.36.06-.94.4-.93-.11,0-.34.03-1.89-.2-2.17-.03-.04.05-.1.07-.14.28-.12.64-.18.57-.47-.21-.88-.15-.9,1.38-.49.46.12.78.09,1.01-.06,1.04-.69,2.07-.49,3.21-.07.34.12.94.07,1.42.1.1.12.2.24.31.36.11-.05.24-.11.36-.16-.2-.08-.41-.16-.6-.24-.1-.66.77-.77,1.47-.48,1.25.52,2.8,1.02,2.61,2.08.8-.31,1.35-.64.33-1.1-.57-.25-1.04-.49-.46-.89.39-.27.99-.16,1.47-.23,2.36-.33,4.2.57,6.34.65-.05-.07-.1-.15-.13-.23-.34-.05-.73-.09-.83-.32-.03-.07.1-.22.21-.24.62-.09.75.18.91.4,1.84-.04,3.67-.16,5.44-.4,1.47-.19,2.85-.16,3.99.39.6.28.78.11,1.08-.11.42-.31,1.04-.55,1.74-.46,2.33.29,4.63-.14,6.94-.04.9.04,1.74.09,2.53.34,1.48.47,1.48.84-.02,1.6l-.18-.07.15.09c1.14.29,1.82.13,2.02-.56.34-1.18,1.12-1.66,3.16-1.32,2.51.42,4.99-.19,7.51.3,1.27.25,2.96-.44,4.56-.14.34.06.93-.06,1.12.04,1.32.73,2.48.66,3.68-.07.32-.2.9-.15,1.38-.17,1.58-.06,3.03.52,4.73.19.57-.11.8.52,1.24.79.11.31-1.17.25-.65.49.38.17,1.43.08.73-.5.36-.68.96-1.02,2.51-.91,1.81.12,3.54-.27,5.48.36,1.14.36,3.31-.11,4.95-.32,1.11-.14,1.32.28,1.81.57l.2.05-.15-.08c.49-.65,1.52-.68,2.61-.69,1.16,0,2.3-.02,3.31.35.47.18.57.41.28.65-.36.3-.8.57-.93.94-.19.1-.41.19-.6.3l-.26.02-.25-.03c-.44-.2-.86-.19-1.27.02l-.11.1.15-.08h1.19c.2.11.39.11.59,0,.19-.1.41-.2.6-.3.75-.02,1.96-.44,2.43-.75.47-.31.34-.95,1.3-.95,1.19.02,2.38-.51,3.42-.17.99.34,1.81.04,2.69.05.98.02,1.89-.24,2.9-.07,2.67.45,5.41.11,8.11.14,1.48.02,2.52.27,3.52.76.44-1.24,2.05-.59,3.18-.49,1.09.09,2.12.21,3.18-.02,1.66-.35,3.23.34,4.89.12.16-.02.55.14.64.27.15.21-.38.73.75.24,1.7-.75,4.29-.73,6.01-.09l-.15.08.18-.05c.34-.11.77-.34.99-.3,2.3.45,4.66.08,6.96.24,1.47.11,3.29-.58,4.42.47.15-.05.37-.1.41-.17.49-.77,1.89-.55,2.77-.57,6.68-.11,13.38.04,20.04.26.96.04,1.86.06,2.85.04,2.17-.05,4.51-.3,6.37.63l-.16.08.16-.07c2.17-.79,4.61-.72,7.07-.68.81.02,1.06.36,1.52.59.36-.24.7-.61,1.32-.56,2.35.2,4.9-.46,7.05.45.73.31.75-.1,1.08-.19,1.87-.54,3.89-.41,5.52.37l-.13.08.18-.05c2.31-.7,4.73-.42,7.12-.19.57.05,1.17.35,1.65.29,3.34-.47,6.63-.11,9.92.13,3.16.23,6.44.11,9.47.42,4.38.43,8.9-.03,13.1.65,2.75.44,5.9.11,8.29,1.18l-.15.09.18-.07c1.29.48,2.82.65,4.25.95,1.3.27,2.43.69,3.54,1.1.96.33,1.19.79.67,1.36-.54.59-1.29.42-2.2.35-4.59-.34-9.22-.9-13.78-.79-2.95.07-5.7-.34-8.52-.25-2.04.07-4.06-.02-6.04-.05-2.59-.04-5.38.27-7.79-.57-.26-.09-.6-.19-.78-.08-2.02,1.11-4.56.41-6.66.33-2.8-.11-5.62-.08-8.44-.24-2.59-.14-2.62-.04-2.51-1.42,0-.13-.03-.2-.39-.24-.81.29.1,1.17-1.32,1.31.21.08.42.16.65.24-.38.23-.62.04-.88-.08-2.05.25-2.93.22-6.4-.19-.91.8-2.54-.62-3.42.31-2.61.15-5.23.22-7.85.16-1.89-.04-.16-1.02-1.3-1.32-.46.36-1.6.34-1.81.86-.21.47-.88.24-1.3.35-1.37.35-1.79-.72-2.74-.5-1.03.23-1.61.29-2.57-.12-1.11-.49-.37.19-.54.34-.42.42-1.08.33-1.78.2-1.3-.23-2.49-.31-3.89.08-1.58.44-3.42-.19-5.16,0-.11,0-.42-.15-.41-.17,1.09-1.18-1.38-.43-1.68-.87-.02-.04-.16-.05-.24-.08-.25.18-.55.36-.85.09-.13-.11.34-.2.62-.25-.46-.64-.99-.55-1.5-.03-.42.43-.18,1.02-1.38,1.26-1.56.32-3.1,0-4.63.04-.26,0-.52-.24-.36-.34.29-.19.73-.3,1.19-.47-.75-.09-1.73-.09-1.94.13-.65.67-1.7.57-2.74.6-2.79.09-5.55.05-8.34-.02-1.76-.05-2.74-.35-3.13-1.25-.07-.16-.02-.44-.59-.44-.1.09-.21.17-.28.26-.31.42.67.99-.34,1.28-.95.27-2.18.42-3.11.09-1.32-.46-2.41-.27-3.68.17-.38-.61.36-1.1,0-1.62-.21-.3-.41-.48-.99-.42-.98.11-.23.35-.13.55.46,1.03.26,1.24-1.7,1.18-2.25-.06-4.46.23-6.71.11-.55-.03-1.3.11-1.56-.24-.26-.37.23-.69.75-.95.41-.2,1.14-.2,1.35-.66-2.77-.92-5.36.32-8.05.21,1.76.4,3.75-.36,5.44.34.07.5-.24,1.03-1.09,1.17-1.17.2-2.57.39-3.68.22-.93-.14.28-.4.57-.72-.9.17-2.15-.42-2.35.58-.05.25-.64.11-.99.13-3.36.21-6.73.24-10.1.17-.1-.8,1.06-.56,1.65-.75-.49-.22-1.34-.12-1.63-.51.57-.2,1.16-.42,1.73-.62,1.47.18,2.9.2,4.25-.25-1.45-.05-2.95-.29-4.3.2-.68.12-1.48.17-1.74.64-2.07,1.03-4.58,1.41-7.35,1.44-.49,0-1.22.11-1.24-.16-.03-.55.26-1.1.39-1.66.08-.39.54-.51,1.19-.51-.11.24-.24.46.16.67.64.34.24.61-.19.88l-.1.09.15-.06c.57-.17,1.27.27,1.83-.09-.75-.46-.26-1.33-1.83-1.5v-.3c.83-.02,1.58-.1,1.76-.64l.15-.09-.18.07c-.59.21-1.17.42-1.76.63-.75.07-1.48.12-2.17.33-.93.27-1.53.53-.28.98.07.03-.24.34-.38.53.23.13.59.34.25.44-.42.12-.36-.19-.54-.32-2.28.91-4.97.8-7.59.85-.21,0-.52-.16-.62-.28-.21-.27.26-.32.62-.4,1.66-.38.33-.31-.19-.49-.41-.14-.47-.53-.78-.78-.08-.06-.55,0-.8.04-.18.04-.65.11-.21.29,1.25.53.55.68-.52.75-.42.03-.86.04-1.94.07.93.1,1.21.11,1.48.15.46.05,1.06.03.98.41-.07.26-.54.27-.9.28-1.08.02-2.15.04-3.23.02-.8-.02-1.47-.03-1.12-.72.21-.45-1.24.07-1.5-.53.42-.81,1.86-.33,3.08-.29-1.44-.88-3.09-1.03-4.94-.45-.78,0-1.09-.38-1.65-.56-.38-1.2-.13-1.45,1.87-1.56,1.25-.07,2.54-.02,3.83-.04.91-.02,1.89.11,2.69-.39-1.76.39-3.4-.09-5.08-.04-2.26.08-4.77.07-4.92,1.82,0,.18-.59.28-.29.59.52-.24,1.09-.44,1.82-.35,0,.15.05.3-.03.43-.34.52-.31.82.91.48.31-.09.59-.22.88-.34,1.09.44.46.9,0,1.35.6.22,1.11-.2,1.68-.04.16.04.37.11.44.19.11.15,0,.32-.28.38-.63.12-1.4.39-1.94.3-2.71-.43-5.54.49-8.18-.29-.42-.12-.7.11-1.04.17-1.61.28-1.63.28-3.36-.48-.42-.19-.67-.06-.99.05-1.66.64-3.89.86-6.83.64.98-.57,1.82-1.16,2.87-1.62.47-.21.73-.28.25-.53-.26-.12-.46-.3-.96-.2-1.76.31-1.78.3-2.12-.55-.42.14-.83.27-1.24.41-.08.03-.15.06-.23.08-.03,0-.15-.05-.13-.07.03-.04.1-.08.15-.12-.34-.64-.82-.22-1.09,0-.39.31.03.63.34.86.7.52,1.04,1.1,1.42,1.64-.57.58-1.48.22-2.17.31-.55.07-.82-.22-.36-.5.24-.15,1.16-.1.62-.49-.34-.25-.91-.53-1.48-.27-.86.42-2,.37-2.97.62.29,0,.59,0,.88.03.47.04,1.07.05,1.01.41-.06.35-.7.3-1.14.32-3.19.14-6.37.43-9.58.06-2.15.52-4.27.21-6.89.16,1.09-.77,2.46-.3,3.15-.79-.55-.77-.6-.8-1.56-.33-.88.42-1.63.11-2.43-.04-.49.17-.96.33-1.47.5.36.49,1.04-.06,1.45.14.2.1.42.21.51.34.1.16-.08.34-.42.34-1.86.03-3.71.5-5.62.08.37-.86,1.78-.37,2.41-.71-.21-.46-1.79-.02-1.6-.67.16-.54.91-.77,1.92-.77h1.47c.13-.03.26-.05.37-.08-.05.07-.1.13-.15.2.08.28.26.51.93.48-.03-.59,0-1.16,1.47-1.29.64-.05,1.25-.17,1.89-.26-.23-.36-.05-.72.23-1.1-1.04.02-1.24.44-1.73.65-1.29.56-2.59,1.33-4.45.48-.59-.27-.86.03-1.19.18-.75.32-1.25.81-2.36.87-.26.36.85.85-.16,1.09-.98.24-2.1.27-2.61-.47-.51.49-1.4.26-2.07.37-2.1.37-4.14.39-6.27.26-.98-.06-1.96-.06-2.9.13-.94.19-1.94.27-2.87.07-.99-.21-1.87-.11-2.84.04-3.29.5-5.52-.45-7.63-1.6-.07-.04-.2-.1-.16-.11,1.74-1.65-1.82-1.74-2.74-2.61-.34.2-.8.25-1.27.26v-.31c-.41,0-.86-.41-1.17-.03-.11.13.51.27.9.31.1,0,.2.02.29.03-.07.67.72.86,1.79.95.59.05,1.12.27,1.01.64-.13.39-.85.33-1.42.35,0,.14,0,.29-.07.42,0,.02-.41.04-.46,0-.28-.2,0-.36.21-.52-2-.65-1.82.65-2.79.94-.77-.58-1.25-1.14-.6-1.8.36-.12.93,0,1.12-.27.03-.04-.2-.18-.33-.19-.64-.08-.68.22-.9.42-.68.27-1.06.76-2.09.77-.52-.31-.03-.59-.02-.88,0-.57-.73-.64-1.63-.51-.68.1-1.47.14-.65.68.46.3.11.57-.36.8-1.5.79-1.48.79-.26,1.71.1.08.08.19.13.3-.46.34-1.37-.19-1.76.27.23.46,1.63.11,1.69.67-1.74.54-3.68.52-5.83-.07,1.55-.17,2.79-.42,2.92-1.23.03-.2.08-.49-.11-.59-.64-.29-1.86.36-2.4-.56-.36-.63-2.04-.39-3.13-.16-.99.21-1.68.51-2.12,1.15-.75,1.13-3.47,1.18-5.03.18h-.54c-.23.33-.88.57-.72.98.2.48-.46.64-1.11.75-.23.04-.59.02-.8-.04-.41-.12-.44-.38-.23-.55.68-.55,1.29-1.18,2.82-1.18.21-.15.42-.15.62,0,.83-.15,2.33.42,2.38-.6.46-.08,1.08-.1,1.32-.27,1.76-1.23,4.15-1.73,6.92-1.55,1.48.1,1.99-.19,2.17-.83.1-.33.54-.68-.02-1.03-.91-.1-2.17.33-2.72-.43-.13-.11-.26-.23-.41-.34-.1.06-.21.12-.31.18.23.06.44.12.67.19-.24,1.7-.24,1.72-3.39,1.74-.62,0-1.14.49-1.82.08.28-.44.52-.89,1.68-.86l.18.05-.13-.08c-1.08-1.07-1.96.44-3.19.1-.42-.11-.13.56.02.86.39.82.72,1.63-1.01,2.17-.55.02-1.09.16-1.48-.24-.7-.73-1.82-.95-3.06-.55-.34.11.36.27.52.44.07.06.11.13.18.19-.13-.03-.24-.06-.37-.09-1.08.07-2.33.56-2.88-.64-.41.61-.57,1.01-.91,1.34-.64.6-2.2.71-3.24.26-.26-.11-.28-.38-.11-.38,2.18.04.64-1.15,2.18-1.4-1.56-.23-2.25.14-2.87.54-.36.23-.55.6-1.3.43-.77-.17-.85-.5-.67-.9.08-.19-.13-.44.02-.58.28-.25.65-.04.98.05.18.05-.08.3.37.22-.1-.08-.21-.17-.31-.25h.02ZM278.17,4.88l.16-.08.15-.08-.18.06-.13.1ZM272.16,3.51s.33.03.41,0c.2-.09.39-.2.47-.33.07-.1-.13-.14-.36-.1-.26.12-.6.21-.54.44l.02-.02ZM270.84,3.76c.1.13.18.12.23-.04,0-.04-.03-.09-.05-.13-.05,0-.15,0-.16.03-.02.04-.03.1,0,.14h-.02ZM266.41,3.06l.16.05.03-.08-.2.03ZM263.92,3.42c-.1.11.07.17.31.15.34-.08.8-.11.73-.38,0-.04-.38-.11-.47-.08-.23.08-.46.19-.59.32h.02ZM261.65,4.88l.15-.08c.18.04.34.09.52.11.26.02.52,0,.78,0-.02-.08,0-.23-.07-.24-.26-.03-.54-.04-.78-.03-.16.02-.31.11-.46.16l-.15.09ZM256.93,5.19l.16-.05.1-.1-.15.07-.11.08ZM253.99,5.57l.16.04v-.07l-.16.03ZM252.95,3.53c.16.15.42.23.73.18.28-.04.59-.16.38-.31-.11-.08-.54-.06-.82-.06-.24,0-.34.08-.28.19h-.02ZM242.78,3.67c.26.08.55.03.72-.11.21-.17-.02-.27-.26-.34-.24-.07-.51-.12-.7.05-.07.15-.03.3.24.38h0ZM241.53,2.55c.05-.1.1-.19.13-.28.03-.1.07-.19.1-.29l.15-.08-.18.05c-.1.08-.23.16-.29.25-.07.11-.24.27.11.35h-.02ZM238.99,4.12l.05.1.1-.08-.15-.02ZM234.49,2.81c.11.17.44.34.62.27.33-.15.59-.38.7-.6.08-.16-.36-.24-.6-.22-.6.04-.62.33-.72.56ZM234.41,4.76h3.6c-1.34-.65-2.48-.13-3.6,0ZM232.55,3.01c.08.08.15.19.28.25.18.08.37.03.36-.1,0-.09-.15-.19-.26-.24-.18-.08-.32-.04-.36.09h-.02ZM228.01,2.2l.11.11c.38.11.75.23,1.14.34.25.23-.94.31-.21.57.13.05.46.08.52.04.31-.18.2-.37-.05-.55-.07-.04-.13-.08-.18-.11-.29-.2-.7-.27-1.16-.32l-.15-.08h-.03ZM224.62,2.47s.16.04.24.05c.08,0,.23,0,.25-.04.07-.09-.07-.12-.31-.09-.07,0-.11.04-.18.07ZM222.14,3.3l.18-.05c.21-.1.41-.19.62-.28.13-.05.28-.05.41,0,.07.1.11.19.18.28.11.18.13.48.64.36.41-.09.31-.36,0-.51-.2-.1-.5-.12-.77-.18-.16-.15-.34-.11-.52,0-.21.1-.41.2-.62.3l-.13.08h.02ZM221.44,4.4c-.08.1.07.16.29.11.16-.04.31-.09.47-.14-.13-.04-.26-.11-.36-.1-.15.02-.36.06-.42.13h.02ZM221.02,1.54l.18-.03-.18-.04v.07ZM219.79,3.06l.16.05.03-.07-.2.02ZM216.98,4.64c.72.15,1.34.16,1.78-.26-.77-.24-1.29-.04-1.78.26ZM212.3,3.06c.62.26,1.12-.2,1.68-.06,2.3.58,1.53-.22,1.27-.85-.81.49-2.12.47-2.95.91ZM211.29,4.76c.31-.09.6-.17.91-.26.13.32.1.67.6.93l.16.08-.16-.09c-.42-.27,1.42-.95-.59-.95-.31-.14-.64-.26-.93,0-.08.07,0,.19,0,.28ZM210.31,2.69c.02.07.1.14.15.21.1.11.2.2.28.31-.07-.11-.15-.23-.21-.34-.1-.09-.11-.17-.03-.27l.11-.09-.16.06s-.13.08-.13.11h0ZM209.82,5.61l.18-.04-.18-.04v.07ZM208.21,2.45c.03.16.15.19.26.07.05-.04.03-.1,0-.15,0-.03-.11-.04-.16-.06-.03.04-.12.09-.1.13h0ZM207.2,4.44s.08.1.11.1c.08,0,.15-.04.23-.06,0-.04.05-.11.03-.11-.18-.07-.33-.04-.37.09h0ZM204.22,3.26c1.56-.15,2.38-.64,2.46-1.45-1.19.46-1.95.83-2.46,1.45ZM203.24,1.42l.16-.06.11-.08-.15.06-.13.09h0ZM202.1,5.24c0,.1.26.27.46.3.46.06.63-.11.6-.33-.02-.15-.21-.26-.64-.26-.13.08-.42.18-.42.28ZM198.14,2.83c.18.04.36.06.55.09.46.23.96.3,1.69.15-.62-.07-1.12-.13-1.63-.19-.1-.09-.16-.19-.28-.27-.23-.18-.67-.33-.91-.14-.28.22.26.29.59.36h-.02ZM194.72,2.76c.1.26.38.21.65.14.16-.04.41-.13.39-.19,0-.18-.28-.27-.59-.26-.34.02-.44.17-.46.3h0ZM193.19,2.07l.15-.08.15-.08-.2.06-.1.1ZM191.61,4.4c.18.03.38.05.55.09.11.08.23.17.38.24.33.17.67.22.98,0,.1-.06.05-.18.08-.27h-.83c-.2,0-.39.02-.59.03-.18-.04-.24-.28-.55-.08h-.02ZM190.66,3.17c.15.27.57.21.93.13.81-.19.38-.29-.11-.41-.9-.21.05-.64-.44-.98-.7.47-.6.87-.39,1.25h.02ZM187.78,1.63s.33.09.44.06c.34-.06.72-.14.59-.39-.02-.05-.29-.06-.46-.1-.33.1-.65.19-.59.42h.02ZM179.78,2c.23.42.98.13,1.4.28.08.03.18.04.26.05.67.96.68.97,2.07.53.68-.22,1.32-.49,2.3-.85-1.7.04-3.05-.06-4.3.29-.37-.29-.7-.63-1.55-.42-.08.02-.18.09-.16.11h-.02ZM176.52,4.23c.02-.14-.1-.17-.29-.06-.05.03-.07.08-.1.11.08.02.15.03.21.04.07-.04.18-.06.18-.09ZM177.73,2.86c0,.06.2.12.29.18.11-.06.31-.12.32-.19.03-.13.05-.33-.39-.22-.13.03-.24.15-.23.23ZM176.86,5.54l-.18.03.16.04v-.07h.02ZM174.3,3l.16-.06c.28-.03.55-.06.83-.07.68-.03,1.34-.08,1.55-.5.03-.07-.08-.22-.2-.24-.81-.14-1.48-.03-1.94.37-.15.12-.21.27-.31.42l-.11.09h.02ZM173.2,2.02s.02.08.03.11c.08,0,.2,0,.25-.03.18-.1.15-.17-.08-.18-.07,0-.16.05-.2.09ZM172.63,1.09s.02.08.03.11c.08,0,.2,0,.23-.03.18-.1.15-.17-.08-.18-.06,0-.16.04-.2.09h.02ZM170.48,2.9c.16-.15.28-.2.29-.27.02-.15.03-.31-.02-.46-.05-.15-.21-.14-.26.03-.05.19,0,.41,0,.71h-.02ZM168.5,3.74l.18-.04-.18-.04v.07ZM166.04,2.37l.18-.05.1-.1-.15.07-.11.08h-.02ZM164.54,4.66c.15-.06.29-.11.44-.18.23.09.51.15.68.26.29.16.67.31.95.11.52-.37-.33-.36-.62-.48-.34-.13-.73-.03-1.07.07-.05.11-.55,0-.38.21h0ZM154.52,5.91l-.16-.05-.03.08.2-.03ZM154.08,2.49c.05.08.65-.07.93-.2l.11-.08-.16.05c-.08.02-.2.02-.26.05-.2.1-.77-.08-.62.18ZM151.33,4.49c1.37,1,3.01.09,4.77.55-1.6-1.2-3.08-1.07-4.77-.55ZM150.68,3.9c.15-.05.33-.09.41-.17.07-.05-.02-.16-.03-.24-.15.05-.33.09-.41.17-.07.05.02.16.03.24ZM143.04.8l.18-.06.11-.1-.15.08-.13.08h-.02ZM124.9,6.04s-.18-.05-.23-.04c-.05.02-.07.08-.1.12.06.04.11.09.18.09.28,0,.33-.06.13-.17h.02ZM124.66,4.22l-.05-.11-.1.09.15.02ZM126.97,5.64c-.37-.51.16-.88-.34-1.21-.83-.02-1.25.33-1.94.58.7.19,1.32.36,2.28.63ZM135.28,3.83l-.13-.02.03.1.1-.08ZM135.72,6.26c.39.03.72-.05.98-.2h.55c.13.05.24.11.38.17.05.02.13,0,.21-.02-.18-.05-.38-.11-.55-.17-.2-.11-.41-.11-.62,0-.26.13-.82-.07-.95.23h0ZM133.96,2.62c-.03.26.11.43.39.42.8-.04,1.53-.19,1.58-.71,0-.14-.13-.28-.2-.42-.15.55-1.37.42-1.76.72h-.02ZM131.81,2.38l.15-.08c.28-.11.98,0,.75-.38-.26.12-.52.24-.78.36l-.1.1h-.02ZM130.74,6.03c-.08.1-.54-.02-.41.19.15-.06.29-.11.44-.18.57.04,1.16.04,1.73.1,1.47.16,1.56-.63,2.35-.94.21-.09.31-.27.07-.41-.77-.42-1.66-.09-2.44-.03-1.25.09-1.61.65-1.73,1.26ZM129.89,1.59s.05.09.08.13c.08-.02.18-.03.24-.06.18-.11.11-.17-.15-.17-.06,0-.11.06-.18.1ZM128.73,4.64c-.15.05-.39.18-.36.21.21.22.44.06.64-.02.21-.1.39-.22.59-.34.6-.13,1.63.02,1.53-.64-.85,0-1.07.42-1.61.58-.26.06-.54.11-.78.19ZM122.7,2.44c.05.3.52.39.98.49.05.1.05.2,0,.31-.19.11-.44.19-.59.32-.11.11.08.19.24.1.19-.1.26-.26.39-.39,1.61-.19,3.24-.39,4.86-.58-1.74-.26-3.39-.28-4.89.24-.05-.2-.06-.41-.16-.59-.1-.18-.24-.42-.72-.28-.13.04-.15.27-.11.42v-.02ZM120.65,2.63c.03.09.16.17.24.26.19.04.31,0,.28-.13-.03-.09-.1-.2-.23-.25-.18-.06-.34,0-.29.12ZM115.65,1.7c.83-.1,1.3-.34,1.63-.72-.73.06-1.68.04-1.63.72ZM115.27,2.87c.23.49.8.39,1.38.31.54-.08,1.35-.11,1.16-.49-.21-.44-1.11-.34-1.74-.29-.52.03-.86.2-.8.49h0ZM113.03,5.47c.11.05.24.15.36.15.16,0,.44-.05.49-.11.13-.2-.13-.27-.46-.23-.15.02-.26.12-.39.19ZM111.92,6.68l.18.11.23-.06c-.13-.03-.26-.05-.39-.05h-.02ZM111.22,2.8l.19-.02-.16-.05-.03.07ZM110.42,6.58c.49.03.98.06,1.47.09-.44-.23-.93-.33-1.47-.09ZM109.33,4.04c.05.2.16.42.55.47.15.02.49-.16.55-.27.13-.22-.15-.4-.54-.45-.31-.04-.51.1-.59.26h.02ZM105.24,2.94c.46.53.85.05,1.27-.02.67-.11,1.48-.32,1.22-.68-.29-.4-1.09-.21-1.66.02.05.04.16.07.16.1-.03.1-.15.09-.29-.03-.68.06-1.03.23-.7.62h0ZM106.22,4.45l.05.11.1-.09-.15-.02ZM104.02,4.58c.16.04.31.11.47.12.24.02.38-.06.26-.15-.1-.07-.29-.12-.47-.14-.23-.03-.33.05-.28.17h.02ZM104.46,5.39l.06.1.07-.09h-.13ZM102.55,6.9c.33.08.65.16.98.24.9-.31,1.89-.19,2.85-.22.94-.04,1.99.12,2.77-.32-.46-.39-2.17.04-1.89-.82.76-.23,1.53.13,2.69.07-1.17-.48-1.92-1.22-2.75-.11-1.29.66-2.59,1.28-4.64,1.17ZM101.26,5.73c.19.11.36.23.57.33.26.11.54.07.73-.05.1-.06.11-.17.16-.26h-.8c-.18,0-.36-.04-.55-.05-.25-.29-.18-.59-.07-.89l.13-.08-.18.05c-1.5.32-.75.64,0,.95ZM98.62,2.6c.18-.15.33-.27.46-.39.37-.36.29-.56-.13-.42-.59.19-.6.47-.34.81h.02ZM92.27,3.14l.1.1c.11.1.23.19.34.28-.1-.11-.2-.2-.29-.31l-.15-.07ZM88.02,5.85c-.51-.03-.73.1-.7.36.23-.12.46-.25.7-.36ZM89.38,4.93c-.96-.19-.42.38-.73.55-.05.03-.05.09-.07.14h.73c.23-.23.91-.52.07-.68h0ZM91.16,3.83c-.16-.05-.31.03-.33.15.07.08.13.16.2.24.13-.05.34-.11.37-.17.02-.06-.11-.18-.24-.21h0ZM80.15,6.25c1.94.39,3.5-.22,5.2-.51.13.05.24.14.37.16.21.03.28-.04.11-.1-.13-.04-.31-.04-.47-.06.2-1.95,3.06-2.63,5.8-3.36-.81-.41-1.45,0-2.13.1-1.24.16-1.87-.07-1.82-.77.39-.1,1.01.03,1.17-.26.11-.21-.34-.31-.65-.41-.2.21-.39.42-.57.63-1.14.56-1.11,1.63-2.97,1.87l-.16-.07.11.1c1.35.77,1.29,1.49-.33,1.91-1.17.3-2.33.64-3.65.79h-.02ZM77.6,4.32c.94.18,1.55.02,2.12-.18.24-.08.91-.16.29-.37-1.25-.42.24-.79,0-1.18-.67-.1-2.1-.16-1.66.13,1.25.81-.54,1.1-.77,1.58h.02ZM74.05,2.54s.1.09.16.11c.07.02.15-.02.23-.03,0-.04,0-.11-.05-.13-.2-.1-.34-.08-.34.05ZM71.49,6.11c2.04.57,4.04-.41,5.67.39.05-.38.29-.73-.05-1.07.2-.1.41-.19.6-.28.81,0,1.73.52,2.53-.13-.96-.2-1.79-.23-2.57.11-.2.1-.39.19-.59.29-.41.12-.91.43-1.27.24-1.87-.95-2.79.02-4.3.46h-.02ZM66.8,6.73c.6-.13.7-.42.88-.66.1-.1.57.04.41-.2-.16.05-.31.11-.47.17-.33.19-.99.27-.83.7h.02ZM65.04,5.68c.08.08.13.19.26.22.23.05.55.08.57-.12,0-.06-.23-.13-.34-.19-.16.04-.33.06-.47.1h-.02ZM62.17,2.21l.1.08c.26.11,0,.53.75.38-.23-.13-.46-.27-.68-.41l-.16-.05ZM58.22,2.91c.34-.03.7-.05,1.04-.08.24-.18.47-.36.72-.54.15-.09.28-.17.42-.26-.13-.03-.28-.04-.42-.06-.02-.09-.05-.18-.08-.27-1.78-.08-1.53.64-1.68,1.2ZM54.97,1.87c-.07.13.03.19.24.11.07-.02.13-.07.15-.11,0-.02-.11-.04-.18-.07-.08.03-.2.04-.21.07ZM54.58,2.79l.2-.03-.18-.06-.03.09h.02ZM52.24,2.81l.2-.03-.18-.05v.08h-.02ZM48.31,5.03l-.16.05c-.26.14-.83-.07-.94.24.33-.07.67-.14.99-.21l.1-.08h.02ZM31.01,4.36l.2-.04-.18-.04v.08h-.02ZM27.94,3.94l.18-.05c.16-.11.33-.21.51-.31-.13,0-.26.02-.37.04-.05.08-.11.16-.18.24l-.13.08Z"/>
        <path class="cls-2" d="M20.09,6.69c.99-.23,1.42-.72,1.37-1.2-.05-.44-.91-.44-1.63-.35l-.16.05.1-.08c1.27-.31,2.54-.62,1.61-1.54-2.44.91-3.96,2.37-7.04,3.1,2.57.32,4.5.31,5.74.02h.02Z"/>
        <path class="cls-2" d="M84.35,7.46c-.86.34-1.68.1-2.53.1-2.48,0-4.95,0-7.41,0-.98,0-1.97,0-2.7.8.98.08,1.91.32,2.43.16,2.17-.65,4.38-.16,6.57-.21,1.27-.04,2.54,0,3.81-.04.57,0,1.3-.03,1.17-.48-.11-.36-.75-.55-1.3-.33h-.03Z"/>
        <path class="cls-2" d="M61.07,6.04c-1.14,1.16-2.74,1.66-5.02,1.59-.81-.03-1.89.16-2.22.91,1.16-.07,2.09-.14,3.03-.19,1.35-.05,2.72-.62,4.07.03.21.1.72-.06.62-.19-.52-.64.85-1.32-.49-2.16Z"/>
        <path class="cls-2" d="M10.2,5.35c.37-.68,1.09-.71,2.04-.3.7-.19,1.39-.37,2.1-.02.26-.38.44-.8,1.45-.77.29,0,.47.15.47.32,0,.59-.91.53-1.6.63-.18.23-2.07,1.29-2.61,1.27-1.52-.04-1.08.65-1.47,1.04-1.63-1.19-1.68-1.51-.39-2.18h0ZM10.64,5.54c.64.32.81.27,1.34-.3-.44.1-.88.2-1.34.3Z"/>
        <path class="cls-2" d="M67.36,7.61c-1.47-.1-2.92-.17-4.14.47.75,1.02,2.26.05,3.29.36.44.13.94.04,1.3-.18.2-.11.37-.27.18-.42-.15-.11-.41-.23-.65-.25h.02Z"/>
        <path class="cls-2" d="M39.46,7.67c-.31.04-.49.21-.37.35.1.12.37.29.6.29,1.4.04,2.82.11,4.64-.42-1.91-.48-3.39-.38-4.87-.23h0Z"/>
        <path class="cls-2" d="M88.54,7.28c-.83-.05-1.55.05-1.86.52-.11.2.18.37.39.34.77-.13,1.86.14,2.3-.37.24-.28-.33-.46-.83-.49Z"/>
        <path class="cls-2" d="M18.04,7.56c1.23.29,2.52.28,3.88-.03-1.19.27-2.41-.29-3.88.03Z"/>
        <path class="cls-2" d="M44.02,6.7c0-.27-.21-.53-.77-.52-.49,0-.85.2-.85.5s.39.42.81.51c.64-.02.81-.22.81-.49h-.02Z"/>
        <path class="cls-2" d="M24.18,7.01c.11-.24-.33-.34-.73-.31-.44.04-.67.23-.64.44.07.36.33.7,1.19.72.57-.25.07-.57.2-.85h-.02Z"/>
        <path class="cls-2" d="M23.1,3.68c.67-.03,1.34-.1,1.55-.49.08-.17-.21-.27-.51-.26-.65.03-1.25.15-1.58.47.05.19.24.31.55.29h-.02Z"/>
        <path class="cls-2" d="M2.59,5.93c1.03.02.95-.51,1.37-.8,1.21.4,2.43.63,3.63.03.18-.09.26-.27.28-.42,0-.05-.34-.19-.39-.17-1.12.37-2.88-.62-3.63.49-.75.07-1.52.12-1.55.65,0,.07.2.2.29.2Z"/>
        <path class="cls-2" d="M29.52,7.62c-.41,0-.77.09-.81.34-.05.22.07.42.59.37.39-.04.65-.2.72-.42.07-.19-.2-.26-.51-.28h.02Z"/>
        <path class="cls-2" d="M15.51,7.32c-.31,0-.51.09-.49.27.08.16.28.26.57.26.33,0,.52-.11.49-.28-.03-.17-.28-.24-.57-.25Z"/>
        <path class="cls-2" d="M17.55,4.86c.28-.07.44-.2.37-.37-.07-.18-.29-.26-.62-.19-.28.06-.39.2-.37.37.1.17.29.27.62.19Z"/>
        <path class="cls-2" d="M5.46,6.12c-.31.04-.52.16-.49.32.03.17.31.22.6.19.31-.03.54-.12.49-.3-.05-.17-.29-.22-.6-.21Z"/>
        <path class="cls-2" d="M36.4,7.7c-.15.04-.41.07-.44.13-.1.15.03.29.36.31.15,0,.39-.06.44-.12.1-.15-.03-.27-.36-.32Z"/>
        <path class="cls-2" d="M26.69,7.62c-.16.04-.46.07-.47.11-.05.19.26.26.54.27.15,0,.42-.06.44-.11.05-.19-.21-.25-.52-.28h.02Z"/>
        <path class="cls-2" d="M.28,5.94c.13,0,.39-.04.42-.1.08-.15-.07-.27-.39-.27-.11,0-.21.11-.31.17.1.06.16.18.28.19H.28Z"/>
        <path class="cls-2" d="M7.14,6.21c.16.04.33.06.51.1.08-.08.16-.16.24-.24-.16-.04-.36-.11-.47-.08-.13.03-.18.15-.28.23h0Z"/>
        <path class="cls-2" d="M70.14,7.96c.08.11.24.16.42.08.11-.05.16-.15.24-.23-.15-.03-.34-.11-.44-.08-.11.04-.15.15-.21.23h-.02Z"/>
        <path class="cls-2" d="M53.31,5.88s.1.07.16.07.13-.04.18-.05c-.05-.03-.1-.05-.15-.07-.07.02-.13.04-.2.05Z"/>
        <path class="cls-2" d="M9.32,4.68s0-.09-.05-.11c-.05-.03-.18-.04-.23-.03-.2.07-.16.13.07.17.07,0,.13-.03.21-.04h0Z"/>
        <path class="cls-2" d="M59.96,2.29v-.31c-.24.04-.68.06-.68.11-.03.27.42.17.68.2Z"/>
      </g>
    </g>
  </g>
</svg>