<?xml version="1.0" encoding="UTF-8"?>
<svg id="Ebene_2" data-name="Ebene 2" xmlns="http://www.w3.org/2000/svg" xmlns:xlink="http://www.w3.org/1999/xlink" viewBox="0 0 15 15">
  <defs>
    <style>
      .cls-1 {
        stroke: #e5e7eb;
        stroke-linecap: round;
        stroke-linejoin: round;
      }

      .cls-1, .cls-2 {
        fill: none;
      }

      .cls-3 {
        clip-path: url(#clippath);
      }
    </style>
    <clipPath id="clippath">
      <rect class="cls-2" width="15" height="15"/>
    </clipPath>
  </defs>
  <g id="Ebene_1-2" data-name="Ebene 1">
    <g class="cls-3">
      <path class="cls-1" d="M13.75,10.58v1.88c0,.17-.03.35-.1.51-.07.16-.17.3-.3.42-.13.12-.28.21-.44.26-.16.06-.34.08-.51.06-1.92-.21-3.77-.87-5.39-1.92-1.51-.96-2.79-2.24-3.75-3.75-1.06-1.63-1.71-3.49-1.92-5.42-.02-.17,0-.35.06-.51s.14-.32.26-.44c.12-.13.26-.23.42-.3.16-.07.33-.11.5-.11h1.88c.3,0,.6.1.83.3.23.2.38.47.42.77.08.6.23,1.19.44,1.76.08.22.1.47.05.7-.05.23-.17.45-.33.62l-.79.79c.89,1.56,2.19,2.86,3.75,3.75l.79-.79c.17-.17.38-.28.62-.33.23-.05.48-.03.7.05.57.21,1.16.36,1.76.44.3.04.58.2.78.43.2.23.3.53.3.84Z"/>
    </g>
  </g>
</svg>