<?xml version="1.0" encoding="UTF-8"?>
<svg id="Ebene_2" data-name="Ebene 2" xmlns="http://www.w3.org/2000/svg" xmlns:xlink="http://www.w3.org/1999/xlink" viewBox="0 0 15 15">
  <defs>
    <style>
      .cls-1 {
        stroke: #e5e7eb;
        stroke-linecap: round;
        stroke-linejoin: round;
      }

      .cls-1, .cls-2 {
        fill: none;
      }

      .cls-3 {
        clip-path: url(#clippath);
      }
    </style>
    <clipPath id="clippath">
      <rect class="cls-2" width="15" height="15"/>
    </clipPath>
  </defs>
  <g id="Ebene_1-2" data-name="Ebene 1">
    <g class="cls-3">
      <path class="cls-1" d="M13.75,7.5c0,3.45-2.8,6.25-6.25,6.25M13.75,7.5c0-3.45-2.8-6.25-6.25-6.25M13.75,7.5H1.25M7.5,13.75c-3.45,0-6.25-2.8-6.25-6.25M7.5,13.75c1.56-1.71,2.45-3.93,2.5-6.25-.05-2.32-.94-4.54-2.5-6.25M7.5,13.75c-1.56-1.71-2.45-3.93-2.5-6.25.05-2.32.94-4.54,2.5-6.25M1.25,7.5C1.25,4.05,4.05,1.25,7.5,1.25"/>
    </g>
  </g>
</svg>