<?xml version="1.0" encoding="UTF-8"?>
<svg id="Ebene_2" data-name="Ebene 2" xmlns="http://www.w3.org/2000/svg" viewBox="0 0 22 27">
  <defs>
    <style>
      .cls-1 {
        fill: none;
        stroke: #284c43;
        stroke-linecap: round;
        stroke-linejoin: round;
        stroke-width: 2px;
      }
    </style>
  </defs>
  <g id="Ebene_1-2" data-name="Ebene 1">
    <path class="cls-1" d="M21,11c0,6.24-6.92,12.74-9.25,14.75-.22.16-.48.25-.75.25s-.53-.09-.75-.25C7.92,23.74,1,17.24,1,11c0-2.65,1.05-5.2,2.93-7.07,1.88-1.88,4.42-2.93,7.07-2.93s5.2,1.05,7.07,2.93c1.88,1.88,2.93,4.42,2.93,7.07Z"/>
    <path class="cls-1" d="M11,14.75c2.07,0,3.75-1.68,3.75-3.75s-1.68-3.75-3.75-3.75-3.75,1.68-3.75,3.75,1.68,3.75,3.75,3.75Z"/>
  </g>
</svg>